<svg xmlns="http://www.w3.org/2000/svg" xmlns:xlink="http://www.w3.org/1999/xlink" width="500" zoomAndPan="magnify" viewBox="0 0 375 374.999991" height="500" preserveAspectRatio="xMidYMid meet" version="1.0"><defs><g/></defs><g fill="#008a6a" fill-opacity="1"><g transform="translate(54.646351, 270.319496)"><g><path d="M 14.890625 -154.515625 C 18.890625 -158.515625 23.660156 -160.515625 29.203125 -160.515625 C 34.742188 -160.515625 39.515625 -158.515625 43.515625 -154.515625 C 47.515625 -150.523438 49.515625 -145.753906 49.515625 -140.203125 C 49.515625 -134.660156 47.515625 -129.890625 43.515625 -125.890625 C 39.515625 -121.898438 34.742188 -119.90625 29.203125 -119.90625 C 23.660156 -119.90625 18.890625 -121.898438 14.890625 -125.890625 C 10.890625 -129.890625 8.890625 -134.660156 8.890625 -140.203125 C 8.890625 -145.753906 10.890625 -150.523438 14.890625 -154.515625 Z M 11.609375 -99.203125 L 11.609375 0 L 45.828125 0 L 45.828125 -99.203125 Z M 11.609375 -99.203125 "/></g></g></g><g fill="#008a6a" fill-opacity="1"><g transform="translate(113.040235, 270.319496)"><g><path d="M 17.40625 -99.203125 L 17.40625 -120.28125 C 17.53125 -135.113281 21.007812 -146.976562 27.84375 -155.875 C 34.675781 -164.769531 44.15625 -169.21875 56.28125 -169.21875 C 61.4375 -169.21875 66.363281 -168.472656 71.0625 -166.984375 C 75.769531 -165.503906 79.15625 -163.992188 81.21875 -162.453125 L 84.515625 -160.328125 L 72.515625 -136.140625 C 69.421875 -137.953125 66.003906 -138.859375 62.265625 -138.859375 C 58.015625 -138.859375 55.179688 -137.40625 53.765625 -134.5 C 52.347656 -131.601562 51.640625 -126.546875 51.640625 -119.328125 L 51.640625 -99.203125 L 74.453125 -99.203125 L 74.453125 -73.109375 L 51.640625 -73.109375 L 51.640625 0 L 17.40625 0 L 17.40625 -73.109375 L 3.09375 -73.109375 L 3.09375 -99.203125 Z M 17.40625 -99.203125 "/></g></g></g><g fill="#008a6a" fill-opacity="1"><g transform="translate(185.549167, 270.319496)"><g><path d="M 14.890625 -154.515625 C 18.890625 -158.515625 23.660156 -160.515625 29.203125 -160.515625 C 34.742188 -160.515625 39.515625 -158.515625 43.515625 -154.515625 C 47.515625 -150.523438 49.515625 -145.753906 49.515625 -140.203125 C 49.515625 -134.660156 47.515625 -129.890625 43.515625 -125.890625 C 39.515625 -121.898438 34.742188 -119.90625 29.203125 -119.90625 C 23.660156 -119.90625 18.890625 -121.898438 14.890625 -125.890625 C 10.890625 -129.890625 8.890625 -134.660156 8.890625 -140.203125 C 8.890625 -145.753906 10.890625 -150.523438 14.890625 -154.515625 Z M 11.609375 -99.203125 L 11.609375 0 L 45.828125 0 L 45.828125 -99.203125 Z M 11.609375 -99.203125 "/></g></g></g><g fill="#008a6a" fill-opacity="1"><g transform="translate(243.943051, 270.319496)"><g><path d="M 17.40625 -99.203125 L 17.40625 -136.140625 L 51.640625 -136.140625 L 51.640625 -99.203125 L 72.515625 -99.203125 L 72.515625 -73.109375 L 51.640625 -73.109375 L 51.640625 -41.578125 C 51.640625 -32.421875 54.21875 -27.84375 59.375 -27.84375 C 60.664062 -27.84375 62.019531 -28.097656 63.4375 -28.609375 C 64.851562 -29.128906 65.945312 -29.648438 66.71875 -30.171875 L 67.875 -30.9375 L 76.390625 -3.28125 C 69.035156 0.84375 60.65625 2.90625 51.25 2.90625 C 44.800781 2.90625 39.253906 1.773438 34.609375 -0.484375 C 29.972656 -2.742188 26.460938 -5.773438 24.078125 -9.578125 C 21.691406 -13.378906 19.984375 -17.375 18.953125 -21.5625 C 17.921875 -25.75 17.40625 -30.226562 17.40625 -35 L 17.40625 -73.109375 L 3.09375 -73.109375 L 3.09375 -99.203125 Z M 17.40625 -99.203125 "/></g></g></g></svg>